<mxfile host="Electron" agent="Mozilla/5.0 (Windows NT 10.0; Win64; x64) AppleWebKit/537.36 (KHTML, like Gecko) draw.io/24.7.17 Chrome/128.0.6613.36 Electron/32.0.1 Safari/537.36" version="24.7.17">
  <diagram name="PÃ¡gina-1" id="14mT0lPR3SDXYmuUTSeg">
    <mxGraphModel dx="934" dy="611" grid="1" gridSize="10" guides="1" tooltips="1" connect="1" arrows="1" fold="1" page="1" pageScale="1" pageWidth="827" pageHeight="1169" math="0" shadow="0">
      <root>
        <mxCell id="0" />
        <mxCell id="1" parent="0" />
        <mxCell id="MKOn_sQULAfSmLuVNTfK-11" style="edgeStyle=orthogonalEdgeStyle;rounded=0;orthogonalLoop=1;jettySize=auto;html=1;exitX=0.5;exitY=1;exitDx=0;exitDy=0;" edge="1" parent="1" source="MKOn_sQULAfSmLuVNTfK-1" target="MKOn_sQULAfSmLuVNTfK-12">
          <mxGeometry relative="1" as="geometry">
            <mxPoint x="260" y="185" as="targetPoint" />
          </mxGeometry>
        </mxCell>
        <mxCell id="MKOn_sQULAfSmLuVNTfK-1" value="" style="rounded=0;whiteSpace=wrap;html=1;rotation=-90;" vertex="1" parent="1">
          <mxGeometry x="110" y="180" width="120" height="10" as="geometry" />
        </mxCell>
        <mxCell id="MKOn_sQULAfSmLuVNTfK-2" value="llega alumno a la fila A" style="text;html=1;align=center;verticalAlign=middle;resizable=0;points=[];autosize=1;strokeColor=none;fillColor=none;" vertex="1" parent="1">
          <mxGeometry x="100" y="100" width="140" height="30" as="geometry" />
        </mxCell>
        <mxCell id="MKOn_sQULAfSmLuVNTfK-8" style="edgeStyle=orthogonalEdgeStyle;rounded=0;orthogonalLoop=1;jettySize=auto;html=1;exitX=0.5;exitY=1;exitDx=0;exitDy=0;entryX=0;entryY=0.5;entryDx=0;entryDy=0;" edge="1" parent="1" source="MKOn_sQULAfSmLuVNTfK-6" target="MKOn_sQULAfSmLuVNTfK-9">
          <mxGeometry relative="1" as="geometry">
            <mxPoint x="250" y="445" as="targetPoint" />
          </mxGeometry>
        </mxCell>
        <mxCell id="MKOn_sQULAfSmLuVNTfK-6" value="" style="rounded=0;whiteSpace=wrap;html=1;rotation=-90;" vertex="1" parent="1">
          <mxGeometry x="110" y="440" width="120" height="10" as="geometry" />
        </mxCell>
        <mxCell id="MKOn_sQULAfSmLuVNTfK-7" value="llega Alumno a la fila B" style="text;html=1;align=center;verticalAlign=middle;resizable=0;points=[];autosize=1;strokeColor=none;fillColor=none;" vertex="1" parent="1">
          <mxGeometry x="100" y="350" width="140" height="30" as="geometry" />
        </mxCell>
        <mxCell id="MKOn_sQULAfSmLuVNTfK-15" style="edgeStyle=orthogonalEdgeStyle;rounded=0;orthogonalLoop=1;jettySize=auto;html=1;exitX=1;exitY=0.5;exitDx=0;exitDy=0;entryX=0.5;entryY=0;entryDx=0;entryDy=0;" edge="1" parent="1" source="MKOn_sQULAfSmLuVNTfK-9" target="MKOn_sQULAfSmLuVNTfK-14">
          <mxGeometry relative="1" as="geometry" />
        </mxCell>
        <mxCell id="MKOn_sQULAfSmLuVNTfK-16" style="edgeStyle=orthogonalEdgeStyle;rounded=0;orthogonalLoop=1;jettySize=auto;html=1;exitX=1;exitY=1;exitDx=0;exitDy=0;entryX=0.25;entryY=0;entryDx=0;entryDy=0;" edge="1" parent="1" source="MKOn_sQULAfSmLuVNTfK-9" target="MKOn_sQULAfSmLuVNTfK-14">
          <mxGeometry relative="1" as="geometry" />
        </mxCell>
        <mxCell id="MKOn_sQULAfSmLuVNTfK-9" value="" style="ellipse;whiteSpace=wrap;html=1;aspect=fixed;" vertex="1" parent="1">
          <mxGeometry x="310.0000000000002" y="410" width="70" height="70" as="geometry" />
        </mxCell>
        <mxCell id="MKOn_sQULAfSmLuVNTfK-10" value="Esperando alumnos en la fila B" style="text;html=1;align=center;verticalAlign=middle;resizable=0;points=[];autosize=1;strokeColor=none;fillColor=none;" vertex="1" parent="1">
          <mxGeometry x="250" y="380" width="190" height="30" as="geometry" />
        </mxCell>
        <mxCell id="MKOn_sQULAfSmLuVNTfK-18" style="edgeStyle=orthogonalEdgeStyle;rounded=0;orthogonalLoop=1;jettySize=auto;html=1;exitX=1;exitY=0.5;exitDx=0;exitDy=0;entryX=0.75;entryY=0;entryDx=0;entryDy=0;" edge="1" parent="1" source="MKOn_sQULAfSmLuVNTfK-12" target="MKOn_sQULAfSmLuVNTfK-14">
          <mxGeometry relative="1" as="geometry" />
        </mxCell>
        <mxCell id="MKOn_sQULAfSmLuVNTfK-12" value="" style="ellipse;whiteSpace=wrap;html=1;aspect=fixed;" vertex="1" parent="1">
          <mxGeometry x="310.0000000000002" y="150" width="70" height="70" as="geometry" />
        </mxCell>
        <mxCell id="MKOn_sQULAfSmLuVNTfK-13" value="Esperando alumnos en la fila A" style="text;html=1;align=center;verticalAlign=middle;resizable=0;points=[];autosize=1;strokeColor=none;fillColor=none;" vertex="1" parent="1">
          <mxGeometry x="250" y="120" width="190" height="30" as="geometry" />
        </mxCell>
        <mxCell id="MKOn_sQULAfSmLuVNTfK-24" style="edgeStyle=orthogonalEdgeStyle;rounded=0;orthogonalLoop=1;jettySize=auto;html=1;exitX=0.5;exitY=1;exitDx=0;exitDy=0;" edge="1" parent="1" source="MKOn_sQULAfSmLuVNTfK-14">
          <mxGeometry relative="1" as="geometry">
            <mxPoint x="750" y="285" as="targetPoint" />
          </mxGeometry>
        </mxCell>
        <mxCell id="MKOn_sQULAfSmLuVNTfK-14" value="" style="rounded=0;whiteSpace=wrap;html=1;rotation=-90;" vertex="1" parent="1">
          <mxGeometry x="550" y="280" width="160" height="10" as="geometry" />
        </mxCell>
        <mxCell id="MKOn_sQULAfSmLuVNTfK-17" style="edgeStyle=orthogonalEdgeStyle;rounded=0;orthogonalLoop=1;jettySize=auto;html=1;exitX=1;exitY=0;exitDx=0;exitDy=0;entryX=0.369;entryY=0.033;entryDx=0;entryDy=0;entryPerimeter=0;" edge="1" parent="1" source="MKOn_sQULAfSmLuVNTfK-9" target="MKOn_sQULAfSmLuVNTfK-14">
          <mxGeometry relative="1" as="geometry" />
        </mxCell>
        <mxCell id="MKOn_sQULAfSmLuVNTfK-21" style="edgeStyle=orthogonalEdgeStyle;rounded=0;orthogonalLoop=1;jettySize=auto;html=1;exitX=1;exitY=0;exitDx=0;exitDy=0;entryX=0.865;entryY=0.233;entryDx=0;entryDy=0;entryPerimeter=0;" edge="1" parent="1" source="MKOn_sQULAfSmLuVNTfK-12" target="MKOn_sQULAfSmLuVNTfK-14">
          <mxGeometry relative="1" as="geometry" />
        </mxCell>
        <mxCell id="MKOn_sQULAfSmLuVNTfK-22" style="edgeStyle=orthogonalEdgeStyle;rounded=0;orthogonalLoop=1;jettySize=auto;html=1;exitX=1;exitY=1;exitDx=0;exitDy=0;entryX=0.66;entryY=0.1;entryDx=0;entryDy=0;entryPerimeter=0;" edge="1" parent="1" source="MKOn_sQULAfSmLuVNTfK-12" target="MKOn_sQULAfSmLuVNTfK-14">
          <mxGeometry relative="1" as="geometry" />
        </mxCell>
        <mxCell id="MKOn_sQULAfSmLuVNTfK-23" value="Inicia el juego" style="text;html=1;align=center;verticalAlign=middle;resizable=0;points=[];autosize=1;strokeColor=none;fillColor=none;" vertex="1" parent="1">
          <mxGeometry x="580" y="370" width="100" height="30" as="geometry" />
        </mxCell>
        <mxCell id="MKOn_sQULAfSmLuVNTfK-27" style="edgeStyle=orthogonalEdgeStyle;rounded=0;orthogonalLoop=1;jettySize=auto;html=1;exitX=1;exitY=0.5;exitDx=0;exitDy=0;" edge="1" parent="1" source="MKOn_sQULAfSmLuVNTfK-25" target="MKOn_sQULAfSmLuVNTfK-28">
          <mxGeometry relative="1" as="geometry">
            <mxPoint x="920" y="285" as="targetPoint" />
          </mxGeometry>
        </mxCell>
        <mxCell id="MKOn_sQULAfSmLuVNTfK-25" value="" style="ellipse;whiteSpace=wrap;html=1;aspect=fixed;" vertex="1" parent="1">
          <mxGeometry x="750.0000000000002" y="250" width="70" height="70" as="geometry" />
        </mxCell>
        <mxCell id="MKOn_sQULAfSmLuVNTfK-26" value="Alumnos jugando" style="text;html=1;align=center;verticalAlign=middle;resizable=0;points=[];autosize=1;strokeColor=none;fillColor=none;" vertex="1" parent="1">
          <mxGeometry x="720" y="198" width="120" height="30" as="geometry" />
        </mxCell>
        <mxCell id="MKOn_sQULAfSmLuVNTfK-34" style="edgeStyle=orthogonalEdgeStyle;rounded=0;orthogonalLoop=1;jettySize=auto;html=1;exitX=1;exitY=0.5;exitDx=0;exitDy=0;entryX=1;entryY=0.5;entryDx=0;entryDy=0;" edge="1" parent="1" source="MKOn_sQULAfSmLuVNTfK-28" target="MKOn_sQULAfSmLuVNTfK-31">
          <mxGeometry relative="1" as="geometry">
            <mxPoint x="920.0645161290322" y="190" as="targetPoint" />
          </mxGeometry>
        </mxCell>
        <mxCell id="MKOn_sQULAfSmLuVNTfK-28" value="" style="rounded=0;whiteSpace=wrap;html=1;rotation=-90;" vertex="1" parent="1">
          <mxGeometry x="860" y="280" width="120" height="10" as="geometry" />
        </mxCell>
        <mxCell id="MKOn_sQULAfSmLuVNTfK-29" value="Finaliza el juego" style="text;html=1;align=center;verticalAlign=middle;resizable=0;points=[];autosize=1;strokeColor=none;fillColor=none;" vertex="1" parent="1">
          <mxGeometry x="930" y="228" width="110" height="30" as="geometry" />
        </mxCell>
        <mxCell id="MKOn_sQULAfSmLuVNTfK-30" value="" style="shape=mxgraph.cisco.misc.token;html=1;pointerEvents=1;dashed=0;fillColor=#036897;strokeColor=#ffffff;strokeWidth=2;verticalLabelPosition=bottom;verticalAlign=top;align=center;outlineConnect=0;" vertex="1" parent="1">
          <mxGeometry x="760" y="90" width="20" height="20" as="geometry" />
        </mxCell>
        <mxCell id="MKOn_sQULAfSmLuVNTfK-31" value="" style="ellipse;whiteSpace=wrap;html=1;aspect=fixed;fillColor=none;" vertex="1" parent="1">
          <mxGeometry x="730" y="60" width="80" height="80" as="geometry" />
        </mxCell>
        <mxCell id="MKOn_sQULAfSmLuVNTfK-32" value="Esperando jugadores&lt;div&gt;&lt;br&gt;&lt;/div&gt;" style="text;html=1;align=center;verticalAlign=middle;resizable=0;points=[];autosize=1;strokeColor=none;fillColor=none;" vertex="1" parent="1">
          <mxGeometry x="687" y="20" width="140" height="40" as="geometry" />
        </mxCell>
        <mxCell id="MKOn_sQULAfSmLuVNTfK-35" style="edgeStyle=orthogonalEdgeStyle;rounded=0;orthogonalLoop=1;jettySize=auto;html=1;exitX=0;exitY=0.5;exitDx=0;exitDy=0;entryX=0.973;entryY=0.021;entryDx=0;entryDy=0;entryPerimeter=0;" edge="1" parent="1" source="MKOn_sQULAfSmLuVNTfK-31" target="MKOn_sQULAfSmLuVNTfK-14">
          <mxGeometry relative="1" as="geometry" />
        </mxCell>
      </root>
    </mxGraphModel>
  </diagram>
</mxfile>
